:FULLY-SPECIFIED
:FORCE-ALL-JOINTS-BE-3DOF
:DEGREES
1427
root -2.08822 13.7094 12.6893 366.659 27.3583 366.554
lfemur 25.5417 -0.196532 -10.3705
ltibia 17.0605 -0 0
lfoot -15.6435 34.5344 4.51291e-05
ltoes -25.1115 0 0
rfemur -65.6955 -21.3744 12.1207
rtibia 74.2417 -0 0
rfoot -9.24213 10.0515 0.00185428
rtoes 4.58579 -0 0
lowerback 10.25 2.02294 -10.2653
upperback -3.36184 1.19553 -0.957955
thorax -9.65525 1.1628 4.51856
lowerneck -0.0135629 -11.6599 -10.5312
upperneck 6.15118 -16.0416 9.64607
head 3.4627 -7.97469 3.87553
lclavicle 3.24112e-14 -9.74045e-15 0
lhumerus -73.6359 -18.0435 104.421
lradius 100.807 0 0
lwrist 58.1467 0 0
lhand -9.6761 41.4856 0
lfingers 7.12502 0 0
lthumb 16.2955 -289.179 0
rclavicle 3.24112e-14 -9.74045e-15 0
rhumerus 63.1217 -14.0054 -27.8305
rradius 82.0214 0 0
rwrist 26.9143 0 0
rhand -43.8264 -31.2721 0
rfingers 7.12502 0 0
rthumb -16.6541 -60.5776 0
1428
root -2.09095 13.7089 12.6884 366.659 27.3319 366.513
lfemur 25.5181 -0.18062 -10.3897
ltibia 17.0817 -0 0
lfoot -15.6218 34.5354 4.41081e-05
ltoes -25.0354 0 0
rfemur -65.7503 -21.4107 12.1396
rtibia 74.2691 0 0
rfoot -9.21997 10.1142 0.00193912
rtoes 4.67209 -0 0
lowerback 10.2162 2.0162 -10.2186
upperback -3.35863 1.19929 -0.936888
thorax -9.63094 1.16138 4.51537
lowerneck -0.0300741 -11.654 -10.5376
upperneck 6.13933 -16.0295 9.62413
head 3.4593 -7.96907 3.87025
lclavicle 8.30602e-14 6.26172e-15 0
lhumerus -73.6538 -18.073 104.451
lradius 100.808 0 0
lwrist 58.204 0 0
lhand -9.58556 41.4222 0
lfingers 7.12502 0 0
lthumb 16.3827 -289.25 0
rclavicle 8.30602e-14 6.26172e-15 0
rhumerus 63.1167 -14.0019 -27.7934
rradius 82.0359 0 0
rwrist 26.7905 0 0
rhand -43.8018 -31.1897 0
rfingers 7.12502 0 0
rthumb -16.6304 -60.4972 0
1429
root -2.09385 13.7096 12.6875 366.657 27.29 366.479
lfemur 25.4946 -0.164715 -10.4089
ltibia 17.1029 -0 0
lfoot -15.6001 34.5365 4.26786e-05
ltoes -24.9593 0 0
rfemur -65.8051 -21.4469 12.1586
rtibia 74.2884 -0 0
rfoot -9.19782 10.1769 0.00199972
rtoes 4.75839 -0 0
lowerback 10.1998 2.00932 -10.193
upperback -3.36437 1.19648 -0.923438
thorax -9.62655 1.15899 4.51646
lowerneck -0.0430407 -11.652 -10.4902
upperneck 6.15585 -16.0225 9.56096
head 3.45668 -7.96576 3.84452
lclavicle 1.01303e-14 -2.50966e-14 0
lhumerus -73.6921 -18.0711 104.445
lradius 100.788 0 0
lwrist 58.2415 0 0
lhand -9.52497 41.3658 0
lfingers 7.12502 0 0
lthumb 16.441 -289.311 0
rclavicle 1.01303e-14 -2.50966e-14 0
rhumerus 63.1163 -13.9861 -27.7839
rradius 82.059 0 0
rwrist 26.7522 0 0
rhand -43.8098 -31.2493 0
rfingers 7.12502 0 0
rthumb -16.6381 -60.5561 0
1430
root -2.09957 13.7123 12.6833 366.635 27.195 366.258
lfemur 25.4711 -0.148818 -10.4281
ltibia 17.1241 -0 0
lfoot -15.5785 34.5376 4.08408e-05
ltoes -24.8832 0 0
rfemur -65.8599 -21.4831 12.1776
rtibia 74.3077 -0 0
rfoot -9.17566 10.2395 0.00203608
rtoes 4.84469 -0 0
lowerback 10.1946 2.03343 -10.0057
upperback -3.40441 1.25676 -0.878786
thorax -9.67137 1.18165 4.44794
lowerneck -0.030902 -11.6484 -10.4985
upperneck 6.11941 -16.0195 9.60289
head 3.44755 -7.96398 3.85995
lclavicle 1.83682e-14 -1.04859e-14 0
lhumerus -73.7323 -18.1351 104.47
lradius 100.783 0 0
lwrist 58.3211 0 0
lhand -9.50601 41.4282 0
lfingers 7.12502 0 0
lthumb 16.4593 -289.25 0
rclavicle 1.83682e-14 -1.04859e-14 0
rhumerus 62.9961 -13.9145 -27.8302
rradius 82.1492 0 0
rwrist 26.8916 0 0
rhand -43.7956 -31.1258 0
rfingers 7.12502 0 0
rthumb -16.6244 -60.4338 0
1431
root -2.10052 13.7102 12.6851 366.674 27.2085 366.442
lfemur 25.4476 -0.132928 -10.4474
ltibia 17.1452 -0 0
lfoot -15.5568 34.5387 3.85945e-05
ltoes -24.807 0 0
rfemur -65.9148 -21.5194 12.1967
rtibia 74.327 -0 0
rfoot -9.15351 10.3022 0.0020482
rtoes 4.93099 -0 0
lowerback 10.1973 2.01609 -10.1603
upperback -3.36448 1.21119 -0.913604
thorax -9.62651 1.16443 4.50606
lowerneck -0.0623379 -11.6446 -10.4538
upperneck 6.08184 -16.0078 9.5764
head 3.43442 -7.95734 3.84603
lclavicle -1.01789e-13 2.13197e-14 0
lhumerus -73.7318 -18.1502 104.463
lradius 100.78 0 0
lwrist 58.4041 0 0
lhand -9.61855 41.4453 0
lfingers 7.12502 0 0
lthumb 16.3509 -289.224 0
rclavicle -1.01789e-13 2.13197e-14 0
rhumerus 62.9992 -13.9224 -27.8258
rradius 82.1408 0 0
rwrist 26.9367 0 0
rhand -43.8103 -31.0724 0
rfingers 7.12502 0 0
rthumb -16.6386 -60.3792 0
1432
root -2.10507 13.7133 12.6811 366.687 27.1164 366.337
lfemur 25.424 -0.117047 -10.4666
ltibia 17.1664 -0 0
lfoot -15.5351 34.5398 3.59399e-05
ltoes -24.7309 0 0
rfemur -65.9697 -21.5555 12.2158
rtibia 74.3463 -0 0
rfoot -9.13136 10.3649 0.00203608
rtoes 5.0173 -0 0
lowerback 10.1999 2.02562 -10.0784
upperback -3.39853 1.23491 -0.889731
thorax -9.6672 1.17475 4.48096
lowerneck -0.0769358 -11.6496 -10.4778
upperneck 6.09649 -16.0156 9.59648
head 3.44555 -7.96061 3.85322
lclavicle 4.4492e-14 -4.42296e-15 0
lhumerus -73.7777 -18.1571 104.472
lradius 100.792 0 0
lwrist 58.4373 0 0
lhand -9.50761 41.4622 0
lfingers 7.12502 0 0
lthumb 16.4578 -289.216 0
rclavicle 4.4492e-14 -4.42296e-15 0
rhumerus 62.9925 -13.9134 -27.8122
rradius 82.1459 0 0
rwrist 26.8457 0 0
rhand -43.7472 -31.0417 0
rfingers 7.12502 0 0
rthumb -16.5778 -60.3536 0
1433
root -2.10737 13.7097 12.6837 366.694 27.1176 366.483
lfemur 25.4005 -0.101174 -10.4859
ltibia 17.1876 -0 0
lfoot -15.5135 34.5408 3.28768e-05
ltoes -24.6548 0 0
rfemur -66.0246 -21.5917 12.235
rtibia 74.3656 -0 0
rfoot -9.1092 10.4276 0.00199972
rtoes 5.1036 -0 0
lowerback 10.2167 2.02758 -10.2089
upperback -3.36262 1.21697 -0.918938
thorax -9.63864 1.17038 4.52601
lowerneck -0.0624861 -11.6602 -10.4676
upperneck 6.04953 -16.0288 9.60364
head 3.43018 -7.96754 3.8551
lclavicle 7.29136e-15 9.0447e-15 0
lhumerus -73.8227 -18.2066 104.496
lradius 100.824 0 0
lwrist 58.471 0 0
lhand -9.41969 41.5418 0
lfingers 7.12502 0 0
lthumb 16.5424 -289.143 0
rclavicle 7.29136e-15 9.0447e-15 0
rhumerus 62.9455 -13.9363 -27.7684
rradius 82.1858 0 0
rwrist 26.7322 0 0
rhand -43.8366 -30.964 0
rfingers 7.12502 0 0
rthumb -16.6639 -60.2687 0
1434
root -2.11154 13.7089 12.6832 366.732 27.0886 366.537
lfemur 25.3769 -0.0853086 -10.5051
ltibia 17.2088 -0 0
lfoot -15.4918 34.5419 2.94053e-05
ltoes -24.5787 0 0
rfemur -66.0795 -21.6279 12.2542
rtibia 74.3849 -0 0
rfoot -9.08705 10.4903 0.00193912
rtoes 5.18991 -0 0
lowerback 10.2265 2.01719 -10.2723
upperback -3.36805 1.19223 -0.923916
thorax -9.64893 1.16278 4.56053
lowerneck -0.0669102 -11.6413 -10.4433
upperneck 6.0258 -16.0022 9.60866
head 3.41955 -7.95381 3.85574
lclavicle -9.96641e-15 8.74653e-15 0
lhumerus -73.8309 -18.2211 104.513
lradius 100.797 0 0
lwrist 58.4711 0 0
lhand -9.1772 41.6661 0
lfingers 7.12502 0 0
lthumb 16.7759 -289.039 0
rclavicle -9.96641e-15 8.74653e-15 0
rhumerus 62.9438 -13.9047 -27.7738
rradius 82.2078 0 0
rwrist 26.6282 0 0
rhand -43.7717 -30.9554 0
rfingers 7.12502 0 0
rthumb -16.6014 -60.2654 0
1435
root -2.11593 13.7087 12.683 366.775 27.0804 366.6
lfemur 25.3534 -0.0694512 -10.5244
ltibia 17.23 -0 0
lfoot -15.4701 34.543 2.55254e-05
ltoes -24.5025 0 0
rfemur -66.1345 -21.664 12.2734
rtibia 74.4042 -0 0
rfoot -9.06489 10.553 0.00185428
rtoes 5.27622 -0 0
lowerback 10.2168 2.00531 -10.349
upperback -3.36168 1.16684 -0.929043
thorax -9.63494 1.15417 4.60306
lowerneck -0.0267845 -11.6299 -10.4396
upperneck 5.9521 -15.9881 9.64396
head 3.39206 -7.94761 3.87135
lclavicle 5.13408e-14 9.31803e-15 0
lhumerus -73.9052 -18.2292 104.516
lradius 100.91 0 0
lwrist 58.4554 0 0
lhand -9.23601 41.8356 0
lfingers 7.12502 0 0
lthumb 16.7192 -288.864 0
rclavicle 5.13408e-14 9.31803e-15 0
rhumerus 62.9506 -13.9577 -27.7237
rradius 82.2433 0 0
rwrist 26.4839 0 0
rhand -43.6117 -31.1347 0
rfingers 7.12502 0 0
rthumb -16.4474 -60.4574 0
